<?xml version="1.0" encoding="UTF-8"?>
<svg xmlns="http://www.w3.org/2000/svg" style="display: none;">
  <!-- Programming Languages -->
  <symbol id="icon-html" viewBox="0 0 48 48">
    <path fill="#E44D26" d="M41,5H7l3,34l14,4l14-4L41,5L41,5z"/>
    <path fill="#F16529" d="M24,8v31.9l11.2-3.2L37.7,8H24L24,8z"/>
    <path fill="#EBEBEB" d="M24,25v-4h8.6l-0.7,11.5L24,35.1v-4.2l4.1-1.4l0.3-4.5H24z M32.9,17l0.3-4H24v4H32.9z"/>
    <path fill="#FFFFFF" d="M24,30.9v4.2l-7.9-2.6L15.7,27h4l0.2,2.5L24,30.9z M19.1,17H24v-4h-9.1l0.7,12H24v-4h-4.6L19.1,17z"/>
  </symbol>
  
  <symbol id="icon-css" viewBox="0 0 48 48">
    <path fill="#0277BD" d="M41,5H7l3,34l14,4l14-4L41,5L41,5z"/>
    <path fill="#039BE5" d="M24,8v31.9l11.2-3.2L37.7,8H24L24,8z"/>
    <path fill="#FFFFFF" d="M33.1,13H24v4h4.9l-0.3,4H24v4h4.4l-0.3,4.5L24,30.9v4.2l7.9-2.6L32.6,21l0,0L33.1,13L33.1,13z"/>
    <path fill="#EEEEEE" d="M24,13v4h-8.9l-0.3-4H24z M19.4,21l0.2,4H24v-4H19.4z M19.8,27h-4l0.3,5.5l7.9,2.6v-4.2l-4.1-1.4L19.8,27z"/>
  </symbol>
  
  <symbol id="icon-javascript" viewBox="0 0 48 48">
    <path fill="#FFD600" d="M6,6h36v36H6V6z"/>
    <path fill="#000001" d="M29.5,33c0.7,1,1.5,2.1,3,2.1c1.4,0,2.1-0.6,2.1-1.5c0-1.1-0.7-1.5-2.2-2.2l-0.8-0.4C29,29.9,27.5,29,27.5,26.2 c0-2.4,1.9-4.2,4.8-4.2c2.1,0,3.5,0.7,4.6,2.5l-2.5,1.6c-0.6-1-1.2-1.4-2.1-1.4c-0.9,0-1.6,0.6-1.6,1.4c0,1,0.6,1.4,2,2l0.8,0.3 c3.1,1.3,4.8,2.7,4.8,5.7c0,2.9-2.3,4.5-5.4,4.5c-3,0-5-1.5-5.9-3.4L29.5,33z M18.7,33c0.6,1,1.1,1.9,2.2,1.9c1.1,0,1.8-0.4,1.8-2.1 v-11h3.1v11c0,3.2-1.9,4.7-4.6,4.7c-2.5,0-3.9-1.3-4.6-2.8L18.7,33z"/>
  </symbol>
  
  <symbol id="icon-react" viewBox="0 0 48 48">
    <path fill="#80DEEA" d="M24,34C11.1,34,1,29.6,1,24c0-5.6,10.1-10,23-10c12.9,0,23,4.4,23,10C47,29.6,36.9,34,24,34z M24,16c-12.6,0-21,4.1-21,8c0,3.9,8.4,8,21,8s21-4.1,21-8C45,20.1,36.6,16,24,16z"/>
    <path fill="#80DEEA" d="M15.1,44.6c-1,0-1.8-0.2-2.6-0.7C7.6,41.1,8.9,30.2,15.3,19c3-5.2,6.7-9.6,10.3-12.4c3.9-3,7.4-3.9,9.8-2.5c2.5,1.4,3.4,4.9,2.8,9.8c-0.6,4.6-2.6,10-5.6,15.2c-3,5.2-6.7,9.6-10.3,12.4C19.7,43.5,17.2,44.6,15.1,44.6z M32.9,5.4c-1.6,0-3.7,0.9-6,2.7c-3.4,2.7-6.9,6.9-9.8,11.9c-6.5,11.4-6.9,20.3-3.6,22.2c1.7,1,4.5,0.1,7.6-2.3c3.4-2.7,6.9-6.9,9.8-11.9c2.8-4.9,4.6-9.9,5.1-14.1c0.4-4-0.1-6.7-1.6-7.6C34.1,5.6,33.5,5.4,32.9,5.4z"/>
    <path fill="#80DEEA" d="M33,44.6c-5,0-12.2-6.1-17.6-15.6C8.9,17.8,7.6,6.9,12.5,4.1c2.6-1.5,6.1-0.6,9.9,2.4c3.7,2.9,7.3,7.3,10.1,12.4c2.8,5.2,4.6,10.3,5.1,14.8c0.5,4.6-0.4,7.9-2.8,9.3C34,44.2,33.6,44.6,33,44.6z M15.1,5.4c-0.6,0-1.1,0.1-1.6,0.4C9.2,8,10.2,17,15.3,26.8c2.9,5.4,6.8,9.6,10.3,12c3.1,2.4,5.9,3.3,7.6,2.3c1.7-1,2.3-3.8,1.8-7.8c-0.5-4.1-2.2-8.9-4.9-13.9c-2.7-5-6-9-9.5-11.8C18.5,6.2,16.6,5.4,15.1,5.4z"/>
    <path fill="#80DEEA" d="M24,31c-3.9,0-7-3.1-7-7c0-3.9,3.1-7,7-7s7,3.1,7,7C31,27.9,27.9,31,24,31z M24,19c-2.8,0-5,2.2-5,5s2.2,5,5,5s5-2.2,5-5S26.8,19,24,19z"/>
  </symbol>
  
  <symbol id="icon-nodejs" viewBox="0 0 48 48">
    <path fill="#388e3c" d="M17.204 19.122l-4.907 2.715C12.113 21.938 12 22.126 12 22.329v5.433c0 .203.113.39.297.492l4.908 2.717c.183.101.41.101.593 0l4.907-2.717C22.887 28.152 23 27.965 23 27.762v-5.433c0-.203-.113-.39-.297-.492l-4.906-2.715c-.184-.102-.41-.102-.593 0M42.451 24.013l-.818.452c-.031.017-.049.048-.049.082v.906c0 .034.019.065.049.082l.818.453c.031.017.068.017.099 0l.818-.453c.03-.017.049-.048.049-.082v-.906c0-.034-.019-.065-.05-.082l-.818-.452C42.534 24.004 42.483 24 42.451 24"/>
    <path fill="#37474f" d="M35.751,13.364l-2.389-1.333c-0.075-0.042-0.167-0.041-0.241,0.003 c-0.074,0.044-0.12,0.123-0.12,0.209L33,20.295l-2.203-1.219C30.705,19.025,30.602,19,30.5,19c-0.102,0-0.205,0.025-0.297,0.076 h0.001l-4.907,2.715C25.113,21.892,25,22.08,25,22.282v5.433c0,0.203,0.113,0.39,0.297,0.492l4.908,2.717 c0.183,0.101,0.41,0.101,0.593,0l4.907-2.717C35.887,28.106,36,27.918,36,27.715V13.788C36,13.612,35.904,13.45,35.751,13.364z M32.866,26.458l-2.23,1.235c-0.083,0.046-0.186,0.046-0.269,0l-2.231-1.235C28.051,26.412,28,26.326,28,26.234v-2.47 c0-0.092,0.051-0.177,0.135-0.224l2.231-1.234h-0.001c0.042-0.023,0.088-0.034,0.135-0.034c0.047,0,0.093,0.012,0.135,0.034 l2.23,1.234C32.949,23.587,33,23.673,33,23.765v2.47C33,26.326,32.949,26.412,32.866,26.458z"/>
    <path fill="#2e7d32" d="M17.204,19.122L12,27.762c0,0.203,0.113,0.39,0.297,0.492l4.908,2.717 c0.183,0.101,0.41,0.101,0.593,0L23,22.329c0-0.203-0.113-0.39-0.297-0.492l-4.906-2.715c-0.092-0.051-0.195-0.076-0.297-0.076 c-0.103,0-0.205,0.025-0.297,0.076"/>
    <path fill="#4caf50" d="M17.204,19.122l-4.907,2.715C12.113,21.938,12,22.126,12,22.329l5.204,8.642 c0.183,0.101,0.41,0.101,0.593,0l4.907-2.717C22.887,28.152,23,27.965,23,27.762l-5.203-8.64c-0.092-0.051-0.195-0.076-0.297-0.076 c-0.103,0-0.205,0.025-0.297,0.076"/>
    <path fill="#37474f" d="M47.703 21.791l-4.906-2.715C42.705 19.025 42.602 19 42.5 19c-.102 0-.205.025-.297.076h.001l-4.907 2.715C37.114 21.892 37 22.08 37 22.282v5.433c0 .203.113.39.297.492l4.908 2.717c.183.101.41.101.593 0l4.907-2.717C47.887 28.106 48 27.918 48 27.715v-5.433C48.001 22.08 47.887 21.892 47.703 21.791zM25.01 24.586l-4.906-2.715c-.184-.102-.41-.102-.594 0l-4.906 2.715c-.184.102-.297.289-.297.491v5.433c0 .203.113.39.297.492l4.908 2.717c.183.101.41.101.593 0l4.906-2.717C24.887 32.4 25 32.213 25 32.01V25.078c0-.203-.112-.39-.297-.492H25.01z"/>
  </symbol>
  
  <symbol id="icon-python" viewBox="0 0 48 48">
    <path fill="#0277BD" d="M24.047,5c-1.555,0.005-2.633,0.142-3.936,0.367c-3.848,0.67-4.549,2.077-4.549,4.67V14h9v2H15.22h-4.35c-2.636,0-4.943,1.242-5.674,4.219c-0.826,3.417-0.863,5.557,0,9.125C5.851,32.005,7.294,34,9.931,34h3.632v-5.104c0-2.966,2.686-5.896,5.764-5.896h7.236c2.523,0,5-1.862,5-4.377v-8.586c0-2.439-1.759-4.263-4.218-4.672C27.406,5.359,25.589,4.994,24.047,5z M19.063,9c0.821,0,1.5,0.677,1.5,1.502c0,0.833-0.679,1.498-1.5,1.498c-0.837,0-1.5-0.664-1.5-1.498C17.563,9.68,18.226,9,19.063,9z"/>
    <path fill="#FFC107" d="M23.078,43c1.555-0.005,2.633-0.142,3.936-0.367c3.848-0.67,4.549-2.077,4.549-4.67V34h-9v-2h9.343h4.35c2.636,0,4.943-1.242,5.674-4.219c0.826-3.417,0.863-5.557,0-9.125C41.274,15.995,39.831,14,37.194,14h-3.632v5.104c0,2.966-2.686,5.896-5.764,5.896h-7.236c-2.523,0-5,1.862-5,4.377v8.586c0,2.439,1.759,4.263,4.218,4.672C19.719,42.641,21.536,43.006,23.078,43z M28.063,39c-0.821,0-1.5-0.677-1.5-1.502c0-0.833,0.679-1.498,1.5-1.498c0.837,0,1.5,0.664,1.5,1.498C29.563,38.32,28.899,39,28.063,39z"/>
  </symbol>
  
  <symbol id="icon-firebase" viewBox="0 0 48 48">
    <path fill="#ff8f00" d="M8,37L23.234,8.436c0.321-0.602,1.189-0.591,1.494,0.02L30,19L8,37z"/>
    <path fill="#ffa000" d="M8,36.992l5.546-34.199c0.145-0.895,1.347-1.089,1.767-0.285L26,22.992L8,36.992z"/>
    <path fill="#ff6f00" d="M8.008 36.986L8.208 36.829 25.737 22.488 20.793 13.012z"/>
    <path fill="#ffc400" d="M8,37l26.666-25.713c0.559-0.539,1.492-0.221,1.606,0.547L40,37l-15,8.743 c-0.609,0.342-1.352,0.342-1.961,0L8,37z"/>
  </symbol>
  
  <symbol id="icon-mongodb" viewBox="0 0 48 48">
    <path fill="#5d4037" d="M42,17.3C42,37.8,24,44,24,44S6,37.8,6,17.3c0-2.5,0.2-4.6,0.4-6.3c0.3-2.5,2-4.5,4.4-5.1 C13.9,5,18.8,4,24,4s10.1,1,13.3,1.9c2.4,0.6,4.1,2.7,4.4,5.1C41.8,12.7,42,14.9,42,17.3z"/>
    <path fill="#4caf50" d="M24,7c4.9,0,9.5,1,12.5,1.8c1.2,0.3,2,1.3,2.2,2.6c0.2,1.9,0.3,3.9,0.3,5.9c0,15.6-11.5,21.9-15,23.4 c-3.5-1.6-15-7.9-15-23.4c0-2,0.1-4,0.3-5.9c0.1-1.3,1-2.3,2.2-2.6C14.5,8,19.1,7,24,7 M24,4c-5.2,0-10.1,1-13.3,1.9 C8.4,6.5,6.6,8.6,6.4,11C6.2,12.7,6,14.9,6,17.3C6,37.8,24,44,24,44s18-6.2,18-26.7c0-2.5-0.2-4.6-0.4-6.3c-0.3-2.5-2-4.5-4.4-5.1 C34.1,5,29.2,4,24,4L24,4z"/>
    <path fill="#dcedc8" d="M23 28H25V36H23z"/>
    <path fill="#4caf50" d="M24,10c0,0-6,5-6,13c0,5.2,3.3,8.5,5,10l1-3l1,3c1.7-1.5,5-4.8,5-10C30,15,24,10,24,10z"/>
    <path fill="#81c784" d="M24,10c0,0-6,5-6,13c0,5.2,3.3,8.5,5,10l1-3V10z"/>
  </symbol>
  
  <!-- Social and Interface Icons -->
  <symbol id="icon-github" viewBox="0 0 24 24">
    <path d="M12 0c-6.626 0-12 5.373-12 12 0 5.302 3.438 9.8 8.207 11.387.599.111.793-.261.793-.577v-2.234c-3.338.726-4.033-1.416-4.033-1.416-.546-1.387-1.333-1.756-1.333-1.756-1.089-.745.083-.729.083-.729 1.205.084 1.839 1.237 1.839 1.237 1.07 1.834 2.807 1.304 3.492.997.107-.775.418-1.305.762-1.604-2.665-.305-5.467-1.334-5.467-5.931 0-1.311.469-2.381 1.236-3.221-.124-.303-.535-1.524.117-3.176 0 0 1.008-.322 3.301 1.23.957-.266 1.983-.399 3.003-.404 1.02.005 2.047.138 3.006.404 2.291-1.552 3.297-1.23 3.297-1.23.653 1.653.242 2.874.118 3.176.77.84 1.235 1.911 1.235 3.221 0 4.609-2.807 5.624-5.479 5.921.43.372.823 1.102.823 2.222v3.293c0 .319.192.694.801.576 4.765-1.589 8.199-6.086 8.199-11.386 0-6.627-5.373-12-12-12z"/>
  </symbol>
  
  <symbol id="icon-linkedin" viewBox="0 0 24 24">
    <path d="M19 0h-14c-2.761 0-5 2.239-5 5v14c0 2.761 2.239 5 5 5h14c2.762 0 5-2.239 5-5v-14c0-2.761-2.238-5-5-5zm-11 19h-3v-11h3v11zm-1.5-12.268c-.966 0-1.75-.79-1.75-1.764s.784-1.764 1.75-1.764 1.75.79 1.75 1.764-.783 1.764-1.75 1.764zm13.5 12.268h-3v-5.604c0-3.368-4-3.113-4 0v5.604h-3v-11h3v1.765c1.396-2.586 7-2.777 7 2.476v6.759z"/>
  </symbol>
  
  <symbol id="icon-twitter" viewBox="0 0 24 24">
    <path d="M24 4.557c-.883.392-1.832.656-2.828.775 1.017-.609 1.798-1.574 2.165-2.724-.951.564-2.005.974-3.127 1.195-.897-.957-2.178-1.555-3.594-1.555-3.179 0-5.515 2.966-4.797 6.045-4.091-.205-7.719-2.165-10.148-5.144-1.29 2.213-.669 5.108 1.523 6.574-.806-.026-1.566-.247-2.229-.616-.054 2.281 1.581 4.415 3.949 4.89-.693.188-1.452.232-2.224.084.626 1.956 2.444 3.379 4.6 3.419-2.07 1.623-4.678 2.348-7.29 2.04 2.179 1.397 4.768 2.212 7.548 2.212 9.142 0 14.307-7.721 13.995-14.646.962-.695 1.797-1.562 2.457-2.549z"/>
  </symbol>
  
  <symbol id="icon-email" viewBox="0 0 24 24">
    <path d="M0 3v18h24v-18h-24zm21.518 2l-9.518 7.713-9.518-7.713h19.036zm-19.518 14v-11.817l10 8.104 10-8.104v11.817h-20z"/>
  </symbol>
  
  <symbol id="icon-phone" viewBox="0 0 24 24">
    <path d="M20 22.621l-3.521-6.795c-.008.004-1.974.97-2.064 1.011-2.24 1.086-6.799-7.82-4.609-8.994l2.083-1.026-3.493-6.817-2.106 1.039c-7.202 3.755 4.233 25.982 11.6 22.615.121-.055 2.102-1.029 2.11-1.033z"/>
  </symbol>
  
  <symbol id="icon-location" viewBox="0 0 24 24">
    <path d="M12 0c-4.198 0-8 3.403-8 7.602 0 4.198 3.469 9.21 8 16.398 4.531-7.188 8-12.2 8-16.398 0-4.199-3.801-7.602-8-7.602zm0 11c-1.657 0-3-1.343-3-3s1.343-3 3-3 3 1.343 3 3-1.343 3-3 3z"/>
  </symbol>
  
  <!-- UI Icons -->
  <symbol id="icon-moon" viewBox="0 0 24 24">
    <path d="M10.719 2.082c-2.572 2.028-4.719 5.212-4.719 9.918 0 4.569 1.938 7.798 4.548 9.895-4.829-.705-8.548-4.874-8.548-9.895 0-5.08 3.808-9.288 8.719-9.918zm1.281-2.082c-6.617 0-12 5.383-12 12s5.383 12 12 12c1.894 0 3.87-.333 5.37-1.179-3.453-.613-9.37-3.367-9.37-10.821 0-7.555 6.422-10.317 9.37-10.821-1.74-.682-3.476-1.179-5.37-1.179z"/>
  </symbol>
  
  <symbol id="icon-sun" viewBox="0 0 24 24">
    <path d="M4.069 13h-4.069v-2h4.069c-.041.328-.069.661-.069 1s.028.672.069 1zm3.034-7.312l-2.881-2.881-1.414 1.414 2.881 2.881c.411-.529.885-1.003 1.414-1.414zm11.209 1.414l2.881-2.881-1.414-1.414-2.881 2.881c.528.411 1.002.886 1.414 1.414zm-6.312-3.102c.339 0 .672.028 1 .069v-4.069h-2v4.069c.328-.041.661-.069 1-.069zm0 16c-.339 0-.672-.028-1-.069v4.069h2v-4.069c-.328.041-.661.069-1 .069zm7.931-9c.041.328.069.661.069 1s-.028.672-.069 1h4.069v-2h-4.069zm-3.033 7.312l2.88 2.88 1.415-1.414-2.88-2.88c-.412.528-.886 1.002-1.415 1.414zm-11.21-1.415l-2.88 2.88 1.414 1.414 2.88-2.88c-.528-.411-1.003-.885-1.414-1.414zm6.312-10.897c-3.314 0-6 2.686-6 6s2.686 6 6 6 6-2.686 6-6-2.686-6-6-6z"/>
  </symbol>
  
  <symbol id="icon-check" viewBox="0 0 24 24">
    <path d="M20.285 2l-11.285 11.567-5.286-5.011-3.714 3.716 9 8.728 15-15.285z"/>
  </symbol>
  
  <symbol id="icon-arrow-right" viewBox="0 0 24 24">
    <path d="M13.025 1l-2.847 2.828 6.176 6.176h-16.354v3.992h16.354l-6.176 6.176 2.847 2.828 10.975-11z"/>
  </symbol>
  
  <symbol id="icon-download" viewBox="0 0 24 24">
    <path d="M16 11h5l-9 10-9-10h5v-11h8v11zm1 11h-10v2h10v-2z"/>
  </symbol>
  
  <symbol id="icon-code" viewBox="0 0 24 24">
    <path d="M24 10.935v2.131l-8 3.947v-2.23l5.64-2.783-5.64-2.79v-2.223l8 3.948zm-16 3.848l-5.64-2.783 5.64-2.79v-2.223l-8 3.948v2.131l8 3.947v-2.23zm7.047-10.783h-2.078l-4.011 16h2.073l4.016-16z"/>
  </symbol>
</svg>